<?xml version="1.0" encoding="utf-8"?>
<!-- Generator: Adobe Illustrator 19.2.0, SVG Export Plug-In . SVG Version: 6.00 Build 0)  -->
<!DOCTYPE svg PUBLIC "-//W3C//DTD SVG 1.1//EN" "http://www.w3.org/Graphics/SVG/1.1/DTD/svg11.dtd">
<svg version="1.1" id="Layer_1" xmlns="http://www.w3.org/2000/svg" xmlns:xlink="http://www.w3.org/1999/xlink" x="0px" y="0px"
	 width="24.5px" height="24.5px" viewBox="0 0 24.5 24.5" style="enable-background:new 0 0 24.5 24.5;" xml:space="preserve">
<style type="text/css">
	.st0{fill:#66737C;}
	.st1{fill:#F2564D;}
</style>
<g>
	<path class="st0" d="M-105.7,20.6l-0.3-0.2c-3.8-2.4-10.2-7.2-10.2-12.8c0-3.7,2.4-6.1,6-6.1c1.7,0,3.6,0.9,4.5,2.3
		c0.9-1.3,2.8-2.2,4.5-2.3c3.7,0,6,2.4,6,6.1c0,5.6-6.4,10.5-10.2,12.8L-105.7,20.6z M-110.2,2.5c-3.1,0-5,2-5,5.1
		c0,5.2,6.4,9.9,9.5,11.8c3.1-1.9,9.5-6.6,9.5-11.8c0-3.1-1.9-5.1-5-5.1c-1.8,0-4,1.3-4,2.9v0.5h-1V5.3
		C-106.2,3.8-108.4,2.5-110.2,2.5z"/>
</g>
<path class="st1" d="M-73.2,5.8c0-1.9,2.4-3.3,4.5-3.4c3.3,0,5.5,2.2,5.5,5.6c0,5.5-6.6,10.3-10,12.4c-3.4-2.1-10-6.9-10-12.4
	c0-3.4,2.2-5.6,5.5-5.6C-75.6,2.5-73.2,3.9-73.2,5.8L-73.2,5.8z"/>
<g>
	<g>
		<path class="st0" d="M-27.2,10.5c-0.1-0.3-3.5-8.5-11.3-8.5c-7.8,0-11.2,8.2-11.3,8.5l-0.2,0.5l0.2,0.5c0.1,0.3,3.5,8.5,11.3,8.5
			c7.8,0,11.2-8.2,11.3-8.5l0.2-0.5L-27.2,10.5z M-28.3,11c-0.1,0.3-3.2,7.8-10.2,7.8s-10.1-7.5-10.2-7.8l0,0l0,0
			c0.1-0.3,3.2-7.8,10.2-7.8S-28.4,10.6-28.3,11L-28.3,11L-28.3,11z M-38.5,7.3c-2,0-3.6,1.6-3.6,3.6c0,2,1.6,3.6,3.6,3.6
			c2,0,3.6-1.6,3.6-3.6C-34.9,9-36.5,7.3-38.5,7.3z M-38.5,13.3c-1.3,0-2.4-1.1-2.4-2.4c0-1.3,1.1-2.4,2.4-2.4
			c1.3,0,2.4,1.1,2.4,2.4C-36.1,12.3-37.2,13.3-38.5,13.3z"/>
	</g>
</g>
<g>
	<path class="st0" d="M-18,21.4l-0.1-4.5c-1.3-1.3-2.2-3-2.6-4.8c-0.5-2.4,0-4.9,1.4-6.9c1.4-2.1,3.6-3.5,6.1-4l0,0
		C-8,0.2-3,3.6-2,8.6c0.5,2.4,0,4.9-1.4,6.9c-1.4,2.1-3.6,3.5-6.1,4c-1.6,0.3-3.2,0.2-4.7-0.3L-18,21.4z M-13,2.2
		c-2.3,0.4-4.2,1.7-5.5,3.6c-1.2,1.8-1.7,4-1.3,6.2c0.3,1.7,1.2,3.2,2.4,4.4l0.2,0.1l0.1,3.2l2.7-1.6l0.2,0.1
		c1.4,0.5,2.9,0.6,4.4,0.3c2.3-0.4,4.2-1.7,5.5-3.6c1.2-1.8,1.7-4,1.3-6.2C-3.9,4.3-8.4,1.3-13,2.2L-13,2.2z"/>
</g>
<polygon class="st0" points="24.4,0.8 23.7,0.1 12.2,11.5 0.8,0.1 0.1,0.8 11.5,12.2 0.1,23.7 0.8,24.4 12.2,12.9 23.7,24.4 
	24.4,23.7 12.9,12.2 "/>
</svg>
