<?xml version="1.0" encoding="utf-8"?>
<svg xmlns="http://www.w3.org/2000/svg"
	xmlns:xlink="http://www.w3.org/1999/xlink"
	width="18px" height="19px" viewBox="0 0 18 19">
<path fillRule="evenodd" d="M 3.78 17.28C 3.78 17.28 5.53 16.26 5.53 16.26 5.53 16.26 5.93 16.02 5.93 16.02 5.93 16.02 6.36 16.17 6.36 16.17 7.22 16.47 8.11 16.62 9.01 16.62 9.5 16.62 10 16.57 10.49 16.48 12.62 16.08 14.45 14.9 15.64 13.13 16.81 11.42 17.23 9.37 16.84 7.35 16.12 3.67 12.83 1 9 1 8.5 1 7.99 1.04 7.5 1.14 5.37 1.53 3.54 2.72 2.34 4.49 1.18 6.2 0.76 8.25 1.15 10.27 1.46 11.85 2.24 13.28 3.43 14.4 3.43 14.4 3.73 14.69 3.73 14.69 3.73 14.69 3.74 15.11 3.74 15.11 3.74 15.11 3.78 17.28 3.78 17.28M 2.82 19C 2.82 19 2.74 15.13 2.74 15.13 1.46 13.91 0.53 12.31 0.17 10.46-0.76 5.68 2.44 1.07 7.31 0.15 7.88 0.05 8.45-0 9-0 13.23-0 17 2.94 17.82 7.16 18.75 11.94 15.55 16.55 10.67 17.46 10.11 17.57 9.56 17.62 9.01 17.62 7.98 17.62 6.97 17.44 6.03 17.12 6.03 17.12 2.82 19 2.82 19 2.82 19 2.82 19 2.82 19Z" fill="rgb(101,115,123)"/></svg>