<?xml version="1.0" encoding="utf-8"?>
<!-- Generator: Adobe Illustrator 19.2.0, SVG Export Plug-In . SVG Version: 6.00 Build 0)  -->
<svg version="1.1" xmlns="http://www.w3.org/2000/svg" xmlns:xlink="http://www.w3.org/1999/xlink" x="0px" y="0px"
	 viewBox="0 0 64.6 61.5" style="enable-background:new 0 0 64.6 61.5;" xml:space="preserve">
<style type="text/css">
	.st0{fill:#66737C;}
	.st1{fill:#F2564D;}
	.st2{fill:#FFFFFF;}
	.st3{fill-rule:evenodd;clip-rule:evenodd;fill:#FFFFFF;}
	.st4{fill:#FAAD4D;}
	.st5{fill-rule:evenodd;clip-rule:evenodd;fill:#43619C;}
	.st6{fill-rule:evenodd;clip-rule:evenodd;fill:#24A9E6;}
	.st7{fill-rule:evenodd;clip-rule:evenodd;fill:#D04330;}
	.st8{fill-rule:evenodd;clip-rule:evenodd;fill:#CB201D;}
</style>
<g id="Layer_1">
</g>
<g id="Layer_2">
	<g>
		<path class="st0" d="M32.3,2.2c16,0,28.9,13,28.9,29c0,16-13,29-28.9,29s-28.9-13-28.9-29C3.4,15.3,16.4,2.2,32.3,2.2 M32.3,1.2
			c-16.5,0-29.9,13.4-29.9,30c0,16.6,13.4,30,29.9,30c16.5,0,29.9-13.4,29.9-30C62.2,14.7,48.9,1.2,32.3,1.2L32.3,1.2z"/>
	</g>
	<path class="st0" d="M34.9,24.7h2.7v-4.1h-2.7c-2.6,0-4.7,2.4-4.7,5.2v1.3H27v4.1h3.3v9.9h3.3v-9.9h4.1v-4.1h-4.1v-1.4
		C33.5,25.1,34.6,24.7,34.9,24.7z"/>
</g>
</svg>
