<?xml version="1.0" encoding="utf-8"?>
<!-- Generator: Adobe Illustrator 19.2.0, SVG Export Plug-In . SVG Version: 6.00 Build 0)  -->
<!DOCTYPE svg PUBLIC "-//W3C//DTD SVG 1.1//EN" "http://www.w3.org/Graphics/SVG/1.1/DTD/svg11.dtd">
<svg version="1.1" xmlns="http://www.w3.org/2000/svg" xmlns:xlink="http://www.w3.org/1999/xlink" x="0px" y="0px" width="64.6px"
	 height="61.5px" viewBox="0 0 64.6 61.5" style="enable-background:new 0 0 64.6 61.5;" xml:space="preserve">
<style type="text/css">
	.st0{fill:#66737C;}
	.st1{fill:#F2564D;}
	.st2{fill:#FFFFFF;}
	.st3{fill-rule:evenodd;clip-rule:evenodd;fill:#FFFFFF;}
	.st4{fill:#FAAD4D;}
	.st5{fill:#C2C7CB;}
	.st6{fill-rule:evenodd;clip-rule:evenodd;fill:#43619C;}
	.st7{fill-rule:evenodd;clip-rule:evenodd;fill:#24A9E6;}
	.st8{fill-rule:evenodd;clip-rule:evenodd;fill:#D04330;}
</style>
<g id="Layer_1">
	<g>
		<path class="st0" d="M246.1-26.4l-0.3-0.2c-3.8-2.4-10.2-7.2-10.2-12.8c0-3.7,2.4-6.1,6-6.1c1.7,0,3.6,0.9,4.5,2.3
			c0.9-1.3,2.8-2.2,4.5-2.3c3.7,0,6,2.4,6,6.1c0,5.6-6.4,10.5-10.2,12.8L246.1-26.4z M241.6-44.5c-3.1,0-5,2-5,5.1
			c0,5.2,6.4,9.9,9.5,11.8c3.1-1.9,9.5-6.6,9.5-11.8c0-3.1-1.9-5.1-5-5.1c-1.8,0-4,1.3-4,2.9v0.5h-1v-0.5
			C245.6-43.2,243.5-44.5,241.6-44.5z"/>
	</g>
	<path class="st1" d="M278.7-41.1c0-1.9,2.4-3.3,4.5-3.4c3.3,0,5.5,2.2,5.5,5.6c0,5.5-6.6,10.3-10,12.4c-3.4-2.1-10-6.9-10-12.4
		c0-3.4,2.2-5.6,5.5-5.6C276.2-44.5,278.7-43,278.7-41.1L278.7-41.1z"/>
	<g>
		<g>
			<path class="st0" d="M324.6-36.5c-0.1-0.3-3.5-8.5-11.3-8.5c-7.8,0-11.2,8.2-11.3,8.5l-0.2,0.5l0.2,0.5c0.1,0.3,3.5,8.5,11.3,8.5
				c7.8,0,11.2-8.2,11.3-8.5l0.2-0.5L324.6-36.5z M323.5-36c-0.1,0.3-3.2,7.8-10.2,7.8s-10.1-7.5-10.2-7.8l0,0l0,0
				c0.1-0.3,3.2-7.8,10.2-7.8S323.4-36.4,323.5-36L323.5-36L323.5-36z M313.3-39.6c-2,0-3.6,1.6-3.6,3.6c0,2,1.6,3.6,3.6,3.6
				c2,0,3.6-1.6,3.6-3.6C316.9-38,315.3-39.6,313.3-39.6z M313.3-33.6c-1.3,0-2.4-1.1-2.4-2.4c0-1.3,1.1-2.4,2.4-2.4
				c1.3,0,2.4,1.1,2.4,2.4C315.7-34.7,314.7-33.6,313.3-33.6z"/>
		</g>
	</g>
	<g>
		<path class="st0" d="M333.8-25.3l-0.1-4.5c-1.3-1.3-2.2-3-2.6-4.8c-0.5-2.4,0-4.9,1.4-6.9c1.4-2.1,3.6-3.5,6.1-4l0,0
			c5.1-1,10.1,2.4,11.1,7.4c0.5,2.4,0,4.9-1.4,6.9c-1.4,2.1-3.6,3.5-6.1,4c-1.6,0.3-3.2,0.2-4.7-0.3L333.8-25.3z M338.9-44.5
			c-2.3,0.4-4.2,1.7-5.5,3.6c-1.2,1.8-1.7,4-1.3,6.2c0.3,1.7,1.2,3.2,2.4,4.4l0.2,0.1l0.1,3.2l2.7-1.6l0.2,0.1
			c1.4,0.5,2.9,0.6,4.4,0.3c2.3-0.4,4.2-1.7,5.5-3.6c1.2-1.8,1.7-4,1.3-6.2C347.9-42.4,343.5-45.4,338.9-44.5L338.9-44.5z"/>
	</g>
	<g>
		<polygon class="st2" points="370.8,-41.5 371.6,-40.6 366.7,-35.5 371.6,-30.4 370.8,-29.5 365,-35.5 		"/>
	</g>
	<path class="st3" d="M305.6-15.5h36v48l-18-6l-18,6V-15.5z"/>
	<path class="st4" d="M323.6-3.5l3.1,5.7l6.4,1.2l-4.5,4.7l0.9,6.4l-5.9-2.8l-5.9,2.8l0.9-6.4l-4.5-4.7l6.4-1.2L323.6-3.5z"/>
	<g>
		<path d="M607.5,396.2h1v3.6h0c0.2-0.3,0.4-0.6,0.8-0.7c0.3-0.2,0.7-0.3,1.1-0.3c0.8,0,2,0.5,2,2.5v3.5h-1v-3.3
			c0-0.9-0.3-1.7-1.3-1.7c-0.7,0-1.2,0.5-1.4,1c-0.1,0.2-0.1,0.3-0.1,0.5v3.5h-1V396.2z"/>
		<path d="M615.5,397.2v1.7h1.5v0.8h-1.5v3.1c0,0.7,0.2,1.1,0.8,1.1c0.3,0,0.5,0,0.6-0.1l0,0.8c-0.2,0.1-0.5,0.2-0.9,0.2
			c-0.5,0-0.9-0.2-1.1-0.4c-0.3-0.3-0.4-0.8-0.4-1.5v-3.2h-0.9v-0.8h0.9v-1.4L615.5,397.2z"/>
		<path d="M619.4,397.2v1.7h1.5v0.8h-1.5v3.1c0,0.7,0.2,1.1,0.8,1.1c0.3,0,0.5,0,0.6-0.1l0,0.8c-0.2,0.1-0.5,0.2-0.9,0.2
			c-0.5,0-0.9-0.2-1.1-0.4c-0.3-0.3-0.4-0.8-0.4-1.5v-3.2h-0.9v-0.8h0.9v-1.4L619.4,397.2z"/>
		<path d="M622.1,400.8c0-0.7,0-1.3,0-1.9h0.9l0,1h0c0.4-0.7,1.1-1.1,2.1-1.1c1.4,0,2.5,1.2,2.5,2.9c0,2.1-1.3,3.1-2.6,3.1
			c-0.8,0-1.5-0.3-1.8-0.9h0v3.2h-1V400.8z M623.2,402.3c0,0.2,0,0.3,0,0.4c0.2,0.7,0.8,1.2,1.6,1.2c1.1,0,1.8-0.9,1.8-2.2
			c0-1.2-0.6-2.1-1.7-2.1c-0.7,0-1.4,0.5-1.6,1.3c0,0.1-0.1,0.3-0.1,0.4V402.3z"/>
		<path d="M629.1,399.8c0-0.4,0.3-0.8,0.7-0.8c0.4,0,0.7,0.3,0.7,0.8c0,0.4-0.3,0.7-0.7,0.7C629.4,400.6,629.1,400.3,629.1,399.8z
			 M629.1,404.1c0-0.4,0.3-0.8,0.7-0.8c0.4,0,0.7,0.3,0.7,0.8c0,0.4-0.3,0.7-0.7,0.7C629.4,404.8,629.1,404.5,629.1,404.1z"/>
		<path d="M635,397.7h0.9l-2.7,7.4h-0.9L635,397.7z"/>
		<path d="M640.2,397.7h0.9l-2.7,7.4h-0.9L640.2,397.7z"/>
		<path d="M646.9,403.3c0,0.5,0,1,0.1,1.4H646l-0.1-0.7h0c-0.3,0.4-0.9,0.9-1.8,0.9c-1.2,0-1.8-0.8-1.8-1.7c0-1.4,1.2-2.2,3.5-2.1
			v-0.1c0-0.5-0.1-1.3-1.3-1.3c-0.5,0-1.1,0.2-1.5,0.4l-0.2-0.7c0.5-0.3,1.2-0.5,1.9-0.5c1.8,0,2.2,1.2,2.2,2.4V403.3z M645.9,401.7
			c-1.2,0-2.5,0.2-2.5,1.3c0,0.7,0.5,1,1,1c0.8,0,1.2-0.5,1.4-1c0-0.1,0-0.2,0-0.3V401.7z"/>
		<path d="M653.6,396.2v7c0,0.5,0,1.1,0,1.5h-0.9l0-1h0c-0.3,0.7-1,1.1-2,1.1c-1.4,0-2.5-1.2-2.5-2.9c0-1.9,1.2-3.1,2.6-3.1
			c0.9,0,1.5,0.4,1.8,0.9h0v-3.5H653.6z M652.5,401.3c0-0.1,0-0.3,0-0.4c-0.2-0.7-0.7-1.2-1.5-1.2c-1.1,0-1.8,0.9-1.8,2.2
			c0,1.2,0.6,2.2,1.7,2.2c0.7,0,1.3-0.5,1.5-1.3c0-0.1,0-0.3,0-0.5V401.3z"/>
		<path d="M660.6,401.8c0,2.1-1.6,3-2.9,3c-1.5,0-2.8-1.1-2.8-3c0-1.9,1.3-3,2.9-3C659.4,398.8,660.6,399.9,660.6,401.8z M656,401.8
			c0,1.2,0.6,2.2,1.8,2.2c1.2,0,1.8-1.1,1.8-2.2c0-1-0.5-2.3-1.8-2.3C656.5,399.5,656,400.8,656,401.8z"/>
		<path d="M661.9,396.2h1v3.6h0c0.4-0.6,1-1.1,2-1.1c1.4,0,2.5,1.2,2.5,3c0,2.1-1.3,3.1-2.6,3.1c-0.8,0-1.5-0.3-2-1.1h0l0,0.9h-0.9
			c0-0.4,0-1,0-1.5V396.2z M663,402.4c0,0.1,0,0.3,0,0.4c0.2,0.7,0.8,1.2,1.6,1.2c1.1,0,1.8-0.9,1.8-2.2c0-1.2-0.6-2.2-1.7-2.2
			c-0.7,0-1.4,0.5-1.6,1.3c0,0.1-0.1,0.3-0.1,0.4V402.4z"/>
		<path d="M669.4,402c0,1.4,0.9,2,2,2c0.8,0,1.2-0.1,1.6-0.3l0.2,0.8c-0.4,0.2-1,0.4-1.9,0.4c-1.8,0-2.9-1.2-2.9-2.9
			c0-1.8,1-3.1,2.7-3.1c1.9,0,2.4,1.7,2.4,2.7c0,0.2,0,0.4,0,0.5H669.4z M672.5,401.2c0-0.7-0.3-1.7-1.5-1.7c-1.1,0-1.5,1-1.6,1.7
			H672.5z"/>
		<path d="M674.6,404.1c0-0.5,0.3-0.8,0.7-0.8c0.4,0,0.7,0.3,0.7,0.8c0,0.4-0.3,0.7-0.7,0.7C674.9,404.8,674.6,404.5,674.6,404.1z"
			/>
		<path d="M677.6,396.2h1v8.5h-1V396.2z"/>
		<path d="M680.8,398.9l1.3,3.4c0.1,0.4,0.3,0.8,0.4,1.2h0c0.1-0.3,0.2-0.8,0.4-1.2l1.2-3.4h1.1l-1.6,4.1c-0.8,2-1.3,3-2,3.6
			c-0.5,0.4-1,0.6-1.3,0.7l-0.3-0.9c0.3-0.1,0.6-0.3,0.9-0.5c0.3-0.2,0.6-0.6,0.9-1.2c0-0.1,0.1-0.2,0.1-0.3c0-0.1,0-0.1-0.1-0.3
			l-2.1-5.3H680.8z"/>
		<path d="M688.6,397.7h0.9l-2.7,7.4H686L688.6,397.7z"/>
		<path d="M695.5,403.8v0.9h-4.1v-0.9h1.7v-5.1c-0.4,0.2-1,0.4-1.4,0.5l-0.1-0.8c0.6-0.2,1.4-0.6,1.8-0.8h0.7v6.2H695.5z"/>
		<path d="M697.4,404.7v-8.1h1.2l2.6,4.1c0.6,1,1.1,1.8,1.5,2.6l0,0c-0.1-1.1-0.1-2.1-0.1-3.3v-3.4h1v8.1h-1.1l-2.6-4.1
			c-0.6-0.9-1.1-1.8-1.5-2.7l0,0c0.1,1,0.1,2,0.1,3.3v3.5H697.4z"/>
		<path d="M709.4,400.9h-3.1v2.9h3.5v0.9h-4.6v-8.1h4.4v0.9h-3.3v2.6h3.1V400.9z"/>
		<path d="M717.8,405.9c-0.9-0.3-2-0.6-3.1-0.9c-0.2-0.1-0.4-0.1-0.5-0.1c-2.2-0.1-3.5-1.8-3.5-4.1c0-2.5,1.5-4.2,3.8-4.2
			c2.3,0,3.6,1.8,3.6,4.1c0,2-1,3.3-2.3,3.8v0c0.8,0.2,1.7,0.4,2.4,0.5L717.8,405.9z M717,400.7c0-1.7-0.8-3.3-2.6-3.3
			c-1.7,0-2.6,1.6-2.6,3.3c0,1.8,0.9,3.3,2.6,3.3C716.1,404,717,402.4,717,400.7z"/>
		<path d="M719.4,396.6h1.1v7.2h3.5v0.9h-4.5V396.6z"/>
		<path d="M725.5,398.9l1.1,3.2c0.2,0.5,0.3,1,0.5,1.5h0c0.1-0.5,0.3-1,0.5-1.5l1.1-3.2h1.1l-2.3,5.8h-1l-2.2-5.8H725.5z"/>
		<path d="M732,397.3c0,0.4-0.3,0.6-0.7,0.6c-0.4,0-0.6-0.3-0.6-0.6c0-0.4,0.3-0.7,0.6-0.7S732,396.9,732,397.3z M730.8,404.7v-5.8
			h1v5.8H730.8z"/>
	</g>
</g>
<g id="Layer_2">
	<g>
		<path class="st5" d="M185,2.2c16,0,28.9,13,28.9,29c0,16-13,29-28.9,29s-28.9-13-28.9-29C156,15.3,169,2.2,185,2.2 M185,1.2
			c-16.5,0-29.9,13.4-29.9,30c0,16.6,13.4,30,29.9,30c16.5,0,29.9-13.4,29.9-30C214.9,14.7,201.5,1.2,185,1.2L185,1.2z"/>
	</g>
	<g>
		<path class="st5" d="M109,2.2c16,0,28.9,13,28.9,29c0,16-13,29-28.9,29c-16,0-28.9-13-28.9-29C80,15.3,93,2.2,109,2.2 M109,1.2
			C92.4,1.2,79,14.7,79,31.2c0,16.6,13.4,30,29.9,30c16.5,0,29.9-13.4,29.9-30C138.9,14.7,125.5,1.2,109,1.2L109,1.2z"/>
	</g>
	<g>
		<path class="st5" d="M32,2.2c16,0,28.9,13,28.9,29c0,16-13,29-28.9,29S3,47.2,3,31.2C3,15.3,16,2.2,32,2.2 M32,1.2
			C15.4,1.2,2,14.7,2,31.2c0,16.6,13.4,30,29.9,30c16.5,0,29.9-13.4,29.9-30C61.9,14.7,48.5,1.2,32,1.2L32,1.2z"/>
	</g>
	<g>
		<path class="st5" d="M-49,2.2c16,0,28.9,13,28.9,29c0,16-13,29-28.9,29s-28.9-13-28.9-29C-78,15.3-65,2.2-49,2.2 M-49,1.2
			c-16.5,0-29.9,13.4-29.9,30c0,16.6,13.4,30,29.9,30c16.5,0,29.9-13.4,29.9-30C-19.1,14.7-32.5,1.2-49,1.2L-49,1.2z"/>
	</g>
	<path class="st0" d="M-46.4,24.7h2.7v-4.1h-2.7c-2.6,0-4.7,2.4-4.7,5.2v1.3h-3.3v4.1h3.3v9.9h3.3v-9.9h4.1v-4.1h-4.1v-1.4
		C-47.8,25.1-46.8,24.7-46.4,24.7z"/>
	<g>
		<path class="st6" d="M-49,77.2c16.5,0,29.9,13.4,29.9,30c0,16.6-13.4,30-29.9,30c-16.5,0-29.9-13.4-29.9-30
			C-79,90.7-65.6,77.2-49,77.2z"/>
	</g>
	<path class="st2" d="M-46.4,100.7h2.7v-4.1h-2.7c-2.6,0-4.7,2.4-4.7,5.2v1.3h-3.3v4.1h3.3v9.9h3.3v-9.9h4.1v-4.1h-4.1v-1.4
		C-47.8,101.1-46.8,100.7-46.4,100.7z"/>
	<path class="st0" d="M121.6,23.4c-0.9,0.4-1.9,0.7-3,0.8c1.1-0.6,1.9-1.7,2.3-2.9c-1,0.6-2.1,1-3.3,1.3c-0.9-1-2.3-1.6-3.8-1.6
		c-2.9,0-5.2,2.3-5.2,5.2c0,0.4,0,0.8,0.1,1.2c-4.3-0.2-8.1-2.3-10.7-5.4c-0.4,0.8-0.7,1.7-0.7,2.6c0,1.8,0.9,3.4,2.3,4.3
		c-0.9,0-1.7-0.3-2.4-0.7c0,0,0,0,0,0.1c0,2.5,1.8,4.6,4.2,5.1c-0.4,0.1-0.9,0.2-1.4,0.2c-0.3,0-0.7,0-1-0.1
		c0.7,2.1,2.6,3.6,4.8,3.6c-1.8,1.4-4,2.2-6.4,2.2c-0.4,0-0.8,0-1.2-0.1c2.3,1.5,5,2.3,8,2.3c9.5,0,14.8-7.9,14.8-14.8
		c0-0.2,0-0.4,0-0.7C120,25.3,120.9,24.4,121.6,23.4z"/>
	<g>
		<path class="st7" d="M109,77.2c16.5,0,29.9,13.4,29.9,30c0,16.6-13.4,30-29.9,30c-16.5,0-29.9-13.4-29.9-30
			C79,90.7,92.4,77.2,109,77.2z"/>
	</g>
	<path class="st2" d="M121.6,99.4c-0.9,0.4-1.9,0.7-3,0.8c1.1-0.6,1.9-1.7,2.3-2.9c-1,0.6-2.1,1-3.3,1.3c-0.9-1-2.3-1.6-3.8-1.6
		c-2.9,0-5.2,2.3-5.2,5.2c0,0.4,0,0.8,0.1,1.2c-4.3-0.2-8.1-2.3-10.7-5.4c-0.4,0.8-0.7,1.7-0.7,2.6c0,1.8,0.9,3.4,2.3,4.3
		c-0.9,0-1.7-0.3-2.4-0.7c0,0,0,0,0,0.1c0,2.5,1.8,4.6,4.2,5.1c-0.4,0.1-0.9,0.2-1.4,0.2c-0.3,0-0.7,0-1-0.1
		c0.7,2.1,2.6,3.6,4.8,3.6c-1.8,1.4-4,2.2-6.4,2.2c-0.4,0-0.8,0-1.2-0.1c2.3,1.5,5,2.3,8,2.3c9.5,0,14.8-7.9,14.8-14.8
		c0-0.2,0-0.4,0-0.7C120,101.3,120.9,100.4,121.6,99.4z"/>
	<g>
		<g>
			<path class="st0" d="M39.2,24.2v-2.7h-1.4v2.7h-2.7v1.4h2.7v2.7h1.4v-2.7H42v-1.4H39.2z M34.7,21.2c0,0-4.4,0-5.9,0
				c-3,0-5.5,2.2-5.5,4.7c0,2.5,1.6,4.5,4.4,4.5c0.2,0,0.4,0,0.6,0c-0.2,0.4-0.3,0.7-0.3,1.2c0,0.7,0.4,1.1,0.8,1.5
				c-0.4,0-0.7,0-1.1,0c-3.4,0-5.8,2.4-5.8,4.7c0,2.2,2.9,3.6,6.3,3.6c3.9,0,6.3-2.2,6.3-4.5c0-1.8-0.4-2.7-2.3-4.1
				c-0.5-0.4-1.7-1.3-1.7-1.8c0-0.7,0.2-1,1.2-1.8c1-0.8,1.7-1.9,1.7-3.2c0-1.4-0.6-2.7-1.7-3.4h1.5L34.7,21.2z M32.7,36.5
				c0,0.2,0.1,0.4,0.1,0.6c0,1.8-1.2,3.2-4.5,3.2c-2.4,0-4.1-1.5-4.1-3.3c0-1.8,2-3.3,4.4-3.3c0.6,0,1.1,0.1,1.5,0.2
				C31.4,34.9,32.4,35.4,32.7,36.5z M28.9,29.4c-1.6,0-3.1-1.5-3.4-3.6c-0.3-2.1,0.8-3.7,2.4-3.7c1.6,0,2.9,1.8,3.2,3.9
				C31.4,28.1,30.5,29.5,28.9,29.4z"/>
		</g>
	</g>
	<g>
		<path class="st8" d="M32,77.2c16.5,0,29.9,13.4,29.9,30c0,16.6-13.4,30-29.9,30c-16.5,0-29.9-13.4-29.9-30
			C2,90.7,15.4,77.2,32,77.2z"/>
	</g>
	<g>
		<g>
			<path class="st2" d="M39.2,100.2v-2.7h-1.4v2.7h-2.7v1.4h2.7v2.7h1.4v-2.7H42v-1.4H39.2z M34.7,97.2c0,0-4.4,0-5.9,0
				c-3,0-5.5,2.2-5.5,4.7c0,2.5,1.6,4.5,4.4,4.5c0.2,0,0.4,0,0.6,0c-0.2,0.4-0.3,0.7-0.3,1.2c0,0.7,0.4,1.1,0.8,1.5
				c-0.4,0-0.7,0-1.1,0c-3.4,0-5.8,2.4-5.8,4.7c0,2.2,2.9,3.6,6.3,3.6c3.9,0,6.3-2.2,6.3-4.5c0-1.8-0.4-2.7-2.3-4.1
				c-0.5-0.4-1.7-1.3-1.7-1.8c0-0.7,0.2-1,1.2-1.8c1-0.8,1.7-1.9,1.7-3.2c0-1.4-0.6-2.7-1.7-3.4h1.5L34.7,97.2z M32.7,112.5
				c0,0.2,0.1,0.4,0.1,0.6c0,1.8-1.2,3.2-4.5,3.2c-2.4,0-4.1-1.5-4.1-3.3c0-1.8,2-3.3,4.4-3.3c0.6,0,1.1,0.1,1.5,0.2
				C31.4,110.9,32.4,111.4,32.7,112.5z M28.9,105.4c-1.6,0-3.1-1.5-3.4-3.6c-0.3-2.1,0.8-3.7,2.4-3.7c1.6,0,2.9,1.8,3.2,3.9
				C31.4,104.1,30.5,105.5,28.9,105.4z"/>
		</g>
	</g>
	<path class="st0" d="M185.4,21c-5.5,0-8.2,4-8.2,7.4c0,2,0.8,3.8,2.4,4.5c0.3,0.1,0.5,0,0.6-0.3c0.1-0.2,0.2-0.7,0.2-0.9
		c0.1-0.3,0-0.4-0.2-0.7c-0.5-0.6-0.8-1.3-0.8-2.3c0-3,2.2-5.7,5.7-5.7c3.1,0,4.8,1.9,4.8,4.5c0,3.4-1.5,6.3-3.7,6.3
		c-1.2,0-2.1-1-1.8-2.3c0.3-1.5,1-3.1,1-4.2c0-1-0.5-1.8-1.6-1.8c-1.2,0-2.2,1.3-2.2,3.1c0,1.1,0.4,1.9,0.4,1.9s-1.3,5.5-1.5,6.4
		c-0.4,1.9-0.1,4.3,0,4.5c0,0.1,0.2,0.2,0.3,0.1c0.1-0.2,1.6-2,2.1-3.9c0.1-0.5,0.8-3.2,0.8-3.2c0.4,0.8,1.6,1.5,2.8,1.5
		c3.7,0,6.2-3.5,6.2-8.1C192.7,24.2,189.8,21,185.4,21z"/>
	<g>
		<path class="st5" d="M185,78.2c16,0,28.9,13,28.9,29c0,16-13,29-28.9,29s-28.9-13-28.9-29C156,91.3,169,78.2,185,78.2 M185,77.2
			c-16.5,0-29.9,13.4-29.9,30c0,16.6,13.4,30,29.9,30c16.5,0,29.9-13.4,29.9-30C214.9,90.7,201.5,77.2,185,77.2L185,77.2z"/>
	</g>
	<path class="st0" d="M185.4,97c-5.5,0-8.2,4-8.2,7.4c0,2,0.8,3.8,2.4,4.5c0.3,0.1,0.5,0,0.6-0.3c0.1-0.2,0.2-0.7,0.2-0.9
		c0.1-0.3,0-0.4-0.2-0.7c-0.5-0.6-0.8-1.3-0.8-2.3c0-3,2.2-5.7,5.7-5.7c3.1,0,4.8,1.9,4.8,4.5c0,3.4-1.5,6.3-3.7,6.3
		c-1.2,0-2.1-1-1.8-2.3c0.3-1.5,1-3.1,1-4.2c0-1-0.5-1.8-1.6-1.8c-1.2,0-2.2,1.3-2.2,3.1c0,1.1,0.4,1.9,0.4,1.9s-1.3,5.5-1.5,6.4
		c-0.4,1.9-0.1,4.3,0,4.5c0,0.1,0.2,0.2,0.3,0.1c0.1-0.2,1.6-2,2.1-3.9c0.1-0.5,0.8-3.2,0.8-3.2c0.4,0.8,1.6,1.5,2.8,1.5
		c3.7,0,6.2-3.5,6.2-8.1C192.7,100.2,189.8,97,185.4,97z"/>
</g>
</svg>
