<?xml version="1.0" encoding="utf-8"?>
<!-- Generator: Adobe Illustrator 19.2.0, SVG Export Plug-In . SVG Version: 6.00 Build 0)  -->
<svg version="1.1" xmlns="http://www.w3.org/2000/svg" xmlns:xlink="http://www.w3.org/1999/xlink" x="0px" y="0px"
	 viewBox="0 0 64.6 61.5" style="enable-background:new 0 0 64.6 61.5;" xml:space="preserve">
<style type="text/css">
	.st0{fill:#66737C;}
	.st1{fill:#F2564D;}
	.st2{fill:#FFFFFF;}
	.st3{fill-rule:evenodd;clip-rule:evenodd;fill:#FFFFFF;}
	.st4{fill:#FAAD4D;}
	.st5{fill-rule:evenodd;clip-rule:evenodd;fill:#43619C;}
	.st6{fill-rule:evenodd;clip-rule:evenodd;fill:#24A9E6;}
	.st7{fill-rule:evenodd;clip-rule:evenodd;fill:#D04330;}
	.st8{fill-rule:evenodd;clip-rule:evenodd;fill:#CB201D;}
</style>
<g id="Layer_1">
</g>
<g id="Layer_2">
	<g>
		<path class="st7" d="M32.3,0.7c16.5,0,29.9,13.4,29.9,30c0,16.6-13.4,30-29.9,30c-16.5,0-29.9-13.4-29.9-30
			C2.4,14.2,15.8,0.7,32.3,0.7z"/>
	</g>
	<g>
		<g>
			<path class="st2" d="M39.6,23.7v-2.7h-1.4v2.7h-2.7v1.4h2.7v2.7h1.4v-2.7h2.7v-1.4H39.6z M35,20.7c0,0-4.4,0-5.9,0
				c-3,0-5.5,2.2-5.5,4.7c0,2.5,1.6,4.5,4.4,4.5c0.2,0,0.4,0,0.6,0c-0.2,0.4-0.3,0.7-0.3,1.2c0,0.7,0.4,1.1,0.8,1.5
				c-0.4,0-0.7,0-1.1,0c-3.4,0-5.8,2.4-5.8,4.7c0,2.2,2.9,3.6,6.3,3.6c3.9,0,6.3-2.2,6.3-4.5c0-1.8-0.4-2.7-2.3-4.1
				c-0.5-0.4-1.7-1.3-1.7-1.8c0-0.7,0.2-1,1.2-1.8c1-0.8,1.7-1.9,1.7-3.2c0-1.4-0.6-2.7-1.7-3.4h1.5L35,20.7z M33,36
				c0,0.2,0.1,0.4,0.1,0.6c0,1.8-1.2,3.2-4.5,3.2c-2.4,0-4.1-1.5-4.1-3.3c0-1.8,2-3.3,4.4-3.3c0.6,0,1.1,0.1,1.5,0.2
				C31.7,34.4,32.8,34.9,33,36z M29.3,28.9c-1.6,0-3.1-1.5-3.4-3.6c-0.3-2.1,0.8-3.7,2.4-3.7c1.6,0,2.9,1.8,3.2,3.9
				C31.8,27.6,30.8,29,29.3,28.9z"/>
		</g>
	</g>
</g>
</svg>
