<?xml version="1.0" encoding="utf-8"?>
<!-- Generator: Adobe Illustrator 19.2.0, SVG Export Plug-In . SVG Version: 6.00 Build 0)  -->
<svg version="1.1" xmlns="http://www.w3.org/2000/svg" xmlns:xlink="http://www.w3.org/1999/xlink" x="0px" y="0px"
	 viewBox="0 0 64.6 61.5" style="enable-background:new 0 0 64.6 61.5;" xml:space="preserve">
<style type="text/css">
	.st0{fill:#66737C;}
	.st1{fill:#F2564D;}
	.st2{fill:#FFFFFF;}
	.st3{fill-rule:evenodd;clip-rule:evenodd;fill:#FFFFFF;}
	.st4{fill:#FAAD4D;}
	.st5{fill-rule:evenodd;clip-rule:evenodd;fill:#43619C;}
	.st6{fill-rule:evenodd;clip-rule:evenodd;fill:#24A9E6;}
	.st7{fill-rule:evenodd;clip-rule:evenodd;fill:#D04330;}
	.st8{fill-rule:evenodd;clip-rule:evenodd;fill:#CB201D;}
</style>
<g id="Layer_1">
</g>
<g id="Layer_2">
	<g>
		<path class="st0" d="M32,2.2c16,0,28.9,13,28.9,29c0,16-13,29-28.9,29S3,47.2,3,31.2C3,15.3,16,2.2,32,2.2 M32,1.2
			C15.4,1.2,2,14.7,2,31.2c0,16.6,13.4,30,29.9,30c16.5,0,29.9-13.4,29.9-30C61.9,14.7,48.5,1.2,32,1.2L32,1.2z"/>
	</g>
	<g>
		<g>
			<path class="st0" d="M39.2,24.2v-2.7h-1.4v2.7h-2.7v1.4h2.7v2.7h1.4v-2.7H42v-1.4H39.2z M34.7,21.2c0,0-4.4,0-5.9,0
				c-3,0-5.5,2.2-5.5,4.7c0,2.5,1.6,4.5,4.4,4.5c0.2,0,0.4,0,0.6,0c-0.2,0.4-0.3,0.7-0.3,1.2c0,0.7,0.4,1.1,0.8,1.5
				c-0.4,0-0.7,0-1.1,0c-3.4,0-5.8,2.4-5.8,4.7c0,2.2,2.9,3.6,6.3,3.6c3.9,0,6.3-2.2,6.3-4.5c0-1.8-0.4-2.7-2.3-4.1
				c-0.5-0.4-1.7-1.3-1.7-1.8c0-0.7,0.2-1,1.2-1.8c1-0.8,1.7-1.9,1.7-3.2c0-1.4-0.6-2.7-1.7-3.4h1.5L34.7,21.2z M32.7,36.5
				c0,0.2,0.1,0.4,0.1,0.6c0,1.8-1.2,3.2-4.5,3.2c-2.4,0-4.1-1.5-4.1-3.3c0-1.8,2-3.3,4.4-3.3c0.6,0,1.1,0.1,1.5,0.2
				C31.4,34.9,32.4,35.4,32.7,36.5z M28.9,29.4c-1.6,0-3.1-1.5-3.4-3.6c-0.3-2.1,0.8-3.7,2.4-3.7c1.6,0,2.9,1.8,3.2,3.9
				C31.4,28.1,30.5,29.5,28.9,29.4z"/>
		</g>
	</g>
</g>
</svg>
