<?xml version="1.0" encoding="utf-8"?>
<svg xmlns="http://www.w3.org/2000/svg"
    class="heart"
	xmlns:xlink="http://www.w3.org/1999/xlink"
	width="20px" height="18px" viewBox="0 0 20 18">
<path fillRule="evenodd" d="M 10 16.82C 13.08 14.84 19.01 10.4 19.01 5.6 19.01 2.74 17.32 1.02 14.5 1 12.92 1.01 11 2.1 11 3.35 11 3.35 11 4.35 11 4.35 11 4.35 10 4.35 10 4.35 10 4.35 9 4.35 9 4.35 9 4.35 9 3.35 9 3.35 9 2.1 7.07 1.01 5.51 1 2.68 1.02 0.99 2.74 0.99 5.6 0.99 10.39 6.92 14.83 10 16.82M 10 18C 6.55 15.86-0.01 11.07-0.01 5.6-0.01 2.15 2.17 0.02 5.51 0 7.58 0.02 10 1.47 10 3.35 10 3.35 10 3.35 10 3.35 10 1.47 12.42 0.02 14.49 0 17.82 0.02 20.01 2.15 20.01 5.6 20.01 11.07 13.45 15.86 10 18 10 18 10 18 10 18Z" fill="rgb(101,115,123)"/></svg>