<?xml version="1.0" encoding="utf-8"?>
<!-- Generator: Adobe Illustrator 19.2.0, SVG Export Plug-In . SVG Version: 6.00 Build 0)  -->
<!DOCTYPE svg PUBLIC "-//W3C//DTD SVG 1.1//EN" "http://www.w3.org/Graphics/SVG/1.1/DTD/svg11.dtd">
<svg version="1.1" id="Layer_1" xmlns="http://www.w3.org/2000/svg" xmlns:xlink="http://www.w3.org/1999/xlink" x="0px" y="0px"
	 width="21px" height="19.1px" viewBox="0 0 21 19.1" style="enable-background:new 0 0 21 19.1;" xml:space="preserve">
<style type="text/css">
	.st0{fill:#66737C;}
	.st1{fill:#F2564D;}
</style>
<g>
	<path class="st0" d="M10.5,19.1l-0.3-0.2C6.4,16.6,0,11.7,0,6.1C0,2.4,2.4,0,6,0c1.7,0,3.6,0.9,4.5,2.3C11.4,0.9,13.3,0,15,0
		c3.7,0,6,2.4,6,6.1c0,5.6-6.4,10.5-10.2,12.8L10.5,19.1z M6,1C2.9,1,1,3,1,6.1c0,5.2,6.4,9.9,9.5,11.8C13.6,16,20,11.3,20,6.1
		C20,3,18.1,1,15,1c-1.8,0-4,1.3-4,2.9v0.5h-1V3.9C10,2.3,7.8,1,6,1z"/>
</g>
<path class="st1" d="M43,4.4C43,2.5,45.4,1,47.5,1C50.8,1,53,3.2,53,6.6c0,5.5-6.6,10.3-10,12.4c-3.4-2.1-10-6.9-10-12.4
	C33,3.2,35.2,1,38.5,1C40.6,1,43,2.5,43,4.4L43,4.4z"/>
<g>
	<g>
		<path class="st0" d="M89,9c-0.1-0.3-3.5-8.5-11.3-8.5c-7.8,0-11.2,8.2-11.3,8.5l-0.2,0.5l0.2,0.5c0.1,0.3,3.5,8.5,11.3,8.5
			c7.8,0,11.2-8.2,11.3-8.5l0.2-0.5L89,9z M87.9,9.5c-0.1,0.3-3.2,7.8-10.2,7.8S67.6,9.8,67.5,9.5l0,0l0,0c0.1-0.3,3.2-7.8,10.2-7.8
			S87.8,9.1,87.9,9.5L87.9,9.5L87.9,9.5z M77.7,5.9c-2,0-3.6,1.6-3.6,3.6c0,2,1.6,3.6,3.6,3.6c2,0,3.6-1.6,3.6-3.6
			C81.3,7.5,79.7,5.9,77.7,5.9z M77.7,11.9c-1.3,0-2.4-1.1-2.4-2.4c0-1.3,1.1-2.4,2.4-2.4c1.3,0,2.4,1.1,2.4,2.4
			C80.1,10.8,79,11.9,77.7,11.9z"/>
	</g>
</g>
<g>
	<path class="st0" d="M98.2,19.9l-0.1-4.5c-1.3-1.3-2.2-3-2.6-4.8c-0.5-2.4,0-4.9,1.4-6.9c1.4-2.1,3.6-3.5,6.1-4l0,0
		c5.1-1,10.1,2.4,11.1,7.4c0.5,2.4,0,4.9-1.4,6.9c-1.4,2.1-3.6,3.5-6.1,4c-1.6,0.3-3.2,0.2-4.7-0.3L98.2,19.9z M103.2,0.7
		C101,1.1,99,2.4,97.8,4.2c-1.2,1.8-1.7,4-1.3,6.2c0.3,1.7,1.2,3.2,2.4,4.4l0.2,0.1l0.1,3.2l2.7-1.6l0.2,0.1
		c1.4,0.5,2.9,0.6,4.4,0.3c2.3-0.4,4.2-1.7,5.5-3.6c1.2-1.8,1.7-4,1.3-6.2C112.3,2.8,107.8-0.2,103.2,0.7L103.2,0.7z"/>
</g>
</svg>
