<?xml version="1.0" encoding="utf-8"?>
<!-- Generator: Adobe Illustrator 19.2.0, SVG Export Plug-In . SVG Version: 6.00 Build 0)  -->
<!DOCTYPE svg PUBLIC "-//W3C//DTD SVG 1.1//EN" "http://www.w3.org/Graphics/SVG/1.1/DTD/svg11.dtd">
<svg version="1.1" id="Layer_1" xmlns="http://www.w3.org/2000/svg" xmlns:xlink="http://www.w3.org/1999/xlink" x="0px" y="0px"
	 width="20px" height="18px" viewBox="0 0 20 18" style="enable-background:new 0 0 20 18;" xml:space="preserve">
<style type="text/css">
	.st0{fill:#66737C;}
	.st1{fill:#F2564D;}
</style>
<g>
	<path class="st0" d="M-22.5,18.1l-0.3-0.2C-26.6,15.6-33,10.7-33,5.1c0-3.7,2.4-6.1,6-6.1c1.7,0,3.6,0.9,4.5,2.3
		C-21.6-0.1-19.7-1-18-1c3.7,0,6,2.4,6,6.1c0,5.6-6.4,10.5-10.2,12.8L-22.5,18.1z M-27,0c-3.1,0-5,2-5,5.1c0,5.2,6.4,9.9,9.5,11.8
		C-19.4,15-13,10.3-13,5.1C-13,2-14.9,0-18,0c-1.8,0-4,1.3-4,2.9v0.5h-1V2.9C-23,1.3-25.2,0-27,0z"/>
</g>
<path class="st1" d="M10,3.4C10,1.5,12.4,0,14.5,0C17.8,0,20,2.2,20,5.6c0,5.5-6.6,10.3-10,12.4C6.6,15.9,0,11.1,0,5.6
	C0,2.2,2.2,0,5.5,0C7.6,0,10,1.5,10,3.4L10,3.4z"/>
<g>
	<g>
		<path class="st0" d="M56,8c-0.1-0.3-3.5-8.5-11.3-8.5c-7.8,0-11.2,8.2-11.3,8.5l-0.2,0.5l0.2,0.5c0.1,0.3,3.5,8.5,11.3,8.5
			c7.8,0,11.2-8.2,11.3-8.5l0.2-0.5L56,8z M54.9,8.5c-0.1,0.3-3.2,7.8-10.2,7.8S34.6,8.8,34.5,8.5l0,0l0,0c0.1-0.3,3.2-7.8,10.2-7.8
			S54.7,8.1,54.9,8.5L54.9,8.5L54.9,8.5z M44.7,4.9c-2,0-3.6,1.6-3.6,3.6c0,2,1.6,3.6,3.6,3.6c2,0,3.6-1.6,3.6-3.6
			C48.3,6.5,46.7,4.9,44.7,4.9z M44.7,10.9c-1.3,0-2.4-1.1-2.4-2.4c0-1.3,1.1-2.4,2.4-2.4c1.3,0,2.4,1.1,2.4,2.4
			C47.1,9.8,46,10.9,44.7,10.9z"/>
	</g>
</g>
<g>
	<path class="st0" d="M65.2,18.9l-0.1-4.5c-1.3-1.3-2.2-3-2.6-4.8c-0.5-2.4,0-4.9,1.4-6.9c1.4-2.1,3.6-3.5,6.1-4l0,0
		c5.1-1,10.1,2.4,11.1,7.4c0.5,2.4,0,4.9-1.4,6.9c-1.4,2.1-3.6,3.5-6.1,4c-1.6,0.3-3.2,0.2-4.7-0.3L65.2,18.9z M70.2-0.3
		C68,0.1,66,1.4,64.8,3.2c-1.2,1.8-1.7,4-1.3,6.2c0.3,1.7,1.2,3.2,2.4,4.4l0.2,0.1l0.1,3.2l2.7-1.6l0.2,0.1c1.4,0.5,2.9,0.6,4.4,0.3
		c2.3-0.4,4.2-1.7,5.5-3.6c1.2-1.8,1.7-4,1.3-6.2C79.3,1.8,74.8-1.2,70.2-0.3L70.2-0.3z"/>
</g>
</svg>
