<?xml version="1.0" encoding="utf-8"?>
<!-- Generator: Adobe Illustrator 19.2.0, SVG Export Plug-In . SVG Version: 6.00 Build 0)  -->
<!DOCTYPE svg PUBLIC "-//W3C//DTD SVG 1.1//EN" "http://www.w3.org/Graphics/SVG/1.1/DTD/svg11.dtd">
<svg version="1.1" xmlns="http://www.w3.org/2000/svg" xmlns:xlink="http://www.w3.org/1999/xlink" x="0px" y="0px"
	 viewBox="0 0 70 70" style="enable-background:new 0 0 70 70;" xml:space="preserve">
<style type="text/css">
	.st0{fill:#66737C;}
	.st1{fill:#F2564D;}
	.st2{fill:#FFFFFF;}
	.st3{fill-rule:evenodd;clip-rule:evenodd;fill:#FFFFFF;}
	.st4{fill:#FAAD4D;}
	.st5{fill-rule:evenodd;clip-rule:evenodd;fill:none;}
	.st6{fill-rule:evenodd;clip-rule:evenodd;fill:#43619C;}
	.st7{fill-rule:evenodd;clip-rule:evenodd;fill:#24A9E6;}
	.st8{fill-rule:evenodd;clip-rule:evenodd;fill:#D04330;}
</style>
<g id="Layer_1">
	<g>
		<g>
			<path class="st0" d="M34.3,43.2l-7.2,7.2c-2.1,2.1-5.5,2.1-7.5,0c-2.1-2.1-2.1-5.5,0-7.5l8.5-8.5c1.9-1.9,5-2.1,7.1-0.4
				c0.4,0.4,1.1,0.3,1.4-0.1c0.4-0.4,0.3-1.1-0.1-1.4c-2.9-2.4-7.2-2.2-9.9,0.5l-8.5,8.5c-1.4,1.4-2.2,3.3-2.2,5.2
				c0,1.9,0.7,3.8,2.2,5.2c2.9,2.9,7.6,2.9,10.4,0l7.2-7.2c0.4-0.4,0.4-1.1,0-1.5C35.4,42.8,34.7,42.8,34.3,43.2z M51.8,18.2
				c-1.4-1.4-3.2-2.2-5.2-2.2c-2,0-3.8,0.8-5.2,2.2L33.5,26c-0.4,0.4-0.4,1.1,0,1.5c0.4,0.4,1.1,0.4,1.5,0l7.9-7.9
				c1-1,2.3-1.6,3.8-1.6c1.4,0,2.8,0.6,3.8,1.6c2.1,2.1,2.1,5.5,0,7.5l-9.2,9.2c-1.9,1.9-5,2.1-7.1,0.4c-0.4-0.4-1.1-0.3-1.4,0.1
				c-0.2,0.2-0.2,0.4-0.2,0.6c0,0.3,0.1,0.6,0.4,0.8c2.9,2.4,7.2,2.2,9.9-0.5l9.2-9.2C54.7,25.7,54.7,21,51.8,18.2z"/>
		</g>
	</g>
	<path class="st5" d="M0,0h70v70H0V0z"/>
</g>
<g id="Layer_2">
</g>
</svg>
