<?xml version="1.0" encoding="utf-8"?>
<!-- Generator: Adobe Illustrator 19.2.0, SVG Export Plug-In . SVG Version: 6.00 Build 0)  -->
<svg version="1.1" xmlns="http://www.w3.org/2000/svg" xmlns:xlink="http://www.w3.org/1999/xlink" x="0px" y="0px"
	 viewBox="0 0 64.6 61.5" style="enable-background:new 0 0 64.6 61.5;" xml:space="preserve">
<style type="text/css">
	.st0{fill:#66737C;}
	.st1{fill:#F2564D;}
	.st2{fill:#FFFFFF;}
	.st3{fill-rule:evenodd;clip-rule:evenodd;fill:#FFFFFF;}
	.st4{fill:#FAAD4D;}
	.st5{fill-rule:evenodd;clip-rule:evenodd;fill:#43619C;}
	.st6{fill-rule:evenodd;clip-rule:evenodd;fill:#24A9E6;}
	.st7{fill-rule:evenodd;clip-rule:evenodd;fill:#D04330;}
	.st8{fill-rule:evenodd;clip-rule:evenodd;fill:#CB201D;}
</style>
<g id="Layer_1">
</g>
<g id="Layer_2">
	<g>
		<path class="st0" d="M32.3,2.2c16,0,28.9,13,28.9,29c0,16-13,29-28.9,29s-28.9-13-28.9-29C3.4,15.3,16.4,2.2,32.3,2.2 M32.3,1.2
			c-16.5,0-29.9,13.4-29.9,30c0,16.6,13.4,30,29.9,30c16.5,0,29.9-13.4,29.9-30C62.2,14.7,48.9,1.2,32.3,1.2L32.3,1.2z"/>
	</g>
	<path class="st0" d="M32.8,21c-5.5,0-8.2,4-8.2,7.4c0,2,0.8,3.8,2.4,4.5c0.3,0.1,0.5,0,0.6-0.3c0.1-0.2,0.2-0.7,0.2-0.9
		c0.1-0.3,0-0.4-0.2-0.7c-0.5-0.6-0.8-1.3-0.8-2.3c0-3,2.2-5.7,5.7-5.7c3.1,0,4.8,1.9,4.8,4.5c0,3.4-1.5,6.3-3.7,6.3
		c-1.2,0-2.1-1-1.8-2.3c0.3-1.5,1-3.1,1-4.2c0-1-0.5-1.8-1.6-1.8c-1.2,0-2.2,1.3-2.2,3.1c0,1.1,0.4,1.9,0.4,1.9s-1.3,5.5-1.5,6.4
		c-0.4,1.9-0.1,4.3,0,4.5c0,0.1,0.2,0.2,0.3,0.1c0.1-0.2,1.6-2,2.1-3.9c0.1-0.5,0.8-3.2,0.8-3.2c0.4,0.8,1.6,1.5,2.8,1.5
		c3.7,0,6.2-3.5,6.2-8.1C40.1,24.2,37.2,21,32.8,21z"/>
</g>
</svg>
