<?xml version="1.0" encoding="utf-8"?>
<!-- Generator: Adobe Illustrator 19.2.0, SVG Export Plug-In . SVG Version: 6.00 Build 0)  -->
<svg version="1.1" xmlns="http://www.w3.org/2000/svg" xmlns:xlink="http://www.w3.org/1999/xlink" x="0px" y="0px"
	 viewBox="0 0 64.6 61.5" style="enable-background:new 0 0 64.6 61.5;" xml:space="preserve">
<style type="text/css">
	.st0{fill:#66737C;}
	.st1{fill:#F2564D;}
	.st2{fill:#FFFFFF;}
	.st3{fill-rule:evenodd;clip-rule:evenodd;fill:#FFFFFF;}
	.st4{fill:#FAAD4D;}
	.st5{fill-rule:evenodd;clip-rule:evenodd;fill:#43619C;}
	.st6{fill-rule:evenodd;clip-rule:evenodd;fill:#24A9E6;}
	.st7{fill-rule:evenodd;clip-rule:evenodd;fill:#D04330;}
	.st8{fill-rule:evenodd;clip-rule:evenodd;fill:#CB201D;}
</style>
<g id="Layer_1">
</g>
<g id="Layer_2">
	<g>
		<path class="st6" d="M32.3,0.7c16.5,0,29.9,13.4,29.9,30c0,16.6-13.4,30-29.9,30c-16.5,0-29.9-13.4-29.9-30
			C2.4,14.2,15.8,0.7,32.3,0.7z"/>
	</g>
	<path class="st2" d="M45,22.9c-0.9,0.4-1.9,0.7-3,0.8c1.1-0.6,1.9-1.7,2.3-2.9c-1,0.6-2.1,1-3.3,1.3c-0.9-1-2.3-1.6-3.8-1.6
		c-2.9,0-5.2,2.3-5.2,5.2c0,0.4,0,0.8,0.1,1.2c-4.3-0.2-8.1-2.3-10.7-5.4c-0.4,0.8-0.7,1.7-0.7,2.6c0,1.8,0.9,3.4,2.3,4.3
		c-0.9,0-1.7-0.3-2.4-0.7c0,0,0,0,0,0.1c0,2.5,1.8,4.6,4.2,5.1C24.4,33,24,33,23.5,33c-0.3,0-0.7,0-1-0.1c0.7,2.1,2.6,3.6,4.8,3.6
		c-1.8,1.4-4,2.2-6.4,2.2c-0.4,0-0.8,0-1.2-0.1c2.3,1.5,5,2.3,8,2.3c9.5,0,14.8-7.9,14.8-14.8c0-0.2,0-0.4,0-0.7
		C43.4,24.8,44.3,23.9,45,22.9z"/>
</g>
</svg>
