<?xml version="1.0" encoding="utf-8"?>
<!-- Generator: Adobe Illustrator 19.1.0, SVG Export Plug-In . SVG Version: 6.00 Build 0)  -->
<!DOCTYPE svg PUBLIC "-//W3C//DTD SVG 1.1//EN" "http://www.w3.org/Graphics/SVG/1.1/DTD/svg11.dtd">
<svg version="1.1" id="Layer_1" xmlns="http://www.w3.org/2000/svg" xmlns:xlink="http://www.w3.org/1999/xlink" x="0px" y="0px"
	 viewBox="-247 370.9 100 100" style="enable-background:new -247 370.9 100 100;" xml:space="preserve">
<style type="text/css">
	.st0{fill:#FFFFFF;}
	.st1{fill:#D9E1E8;}
</style>
<circle class="st0" cx="-197" cy="422.4" r="39.5"/>
<path class="st1" d="M-157,421.7c0-22.1-17.9-40-40-40s-40,17.9-40,40c0,0.1,0,0.2,0,0.3c0,0.1,0,0.2,0,0.3c0,22.1,17.9,40,40,40
	s40-17.9,40-40c0-0.1,0-0.2,0-0.3C-157,421.9-157,421.8-157,421.7z M-197,402.4c7.7,0,14,6.3,14,14c0,7.7-6.3,14-14,14
	s-14-6.3-14-14C-211,408.7-204.7,402.4-197,402.4z M-197,461.4c-10.8,0-20.6-4.4-27.7-11.5c4.6-10.9,15.2-18.5,27.7-18.5
	s23.1,7.6,27.7,18.4C-176.4,456.9-186.2,461.4-197,461.4z"/>
</svg>
