<?xml version="1.0" encoding="utf-8"?>
<!-- Generator: Adobe Illustrator 19.2.0, SVG Export Plug-In . SVG Version: 6.00 Build 0)  -->
<!DOCTYPE svg PUBLIC "-//W3C//DTD SVG 1.1//EN" "http://www.w3.org/Graphics/SVG/1.1/DTD/svg11.dtd">
<svg version="1.1" id="Layer_1" xmlns="http://www.w3.org/2000/svg" xmlns:xlink="http://www.w3.org/1999/xlink" x="0px" y="0px"
	 width="23px" height="18px" viewBox="0 0 23 18" style="enable-background:new 0 0 23 18;" xml:space="preserve">
<style type="text/css">
	.st0{fill:#66737C;}
	.st1{fill:#F2564D;}
</style>
<g>
	<path class="st0" d="M-55.7,18.6l-0.3-0.2c-3.8-2.4-10.2-7.2-10.2-12.8c0-3.7,2.4-6.1,6-6.1c1.7,0,3.6,0.9,4.5,2.3
		c0.9-1.3,2.8-2.2,4.5-2.3c3.7,0,6,2.4,6,6.1c0,5.6-6.4,10.5-10.2,12.8L-55.7,18.6z M-60.2,0.5c-3.1,0-5,2-5,5.1
		c0,5.2,6.4,9.9,9.5,11.8c3.1-1.9,9.5-6.6,9.5-11.8c0-3.1-1.9-5.1-5-5.1c-1.8,0-4,1.3-4,2.9v0.5h-1V3.4C-56.2,1.8-58.4,0.6-60.2,0.5
		z"/>
</g>
<path class="st1" d="M-23.2,3.9c0-1.9,2.4-3.3,4.5-3.4c3.3,0,5.5,2.2,5.5,5.6c0,5.5-6.6,10.3-10,12.4c-3.4-2.1-10-6.9-10-12.4
	c0-3.4,2.2-5.6,5.5-5.6C-25.6,0.6-23.2,2-23.2,3.9L-23.2,3.9z"/>
<g>
	<g>
		<path class="st0" d="M22.8,8.5C22.7,8.2,19.3,0,11.5,0C3.7,0,0.3,8.2,0.2,8.5L0,9l0.2,0.5C0.3,9.8,3.7,18,11.5,18
			c7.8,0,11.2-8.2,11.3-8.5L23,9L22.8,8.5z M21.7,9c-0.1,0.3-3.2,7.8-10.2,7.8S1.4,9.3,1.3,9l0,0l0,0c0.1-0.3,3.2-7.8,10.2-7.8
			S21.6,8.7,21.7,9L21.7,9L21.7,9z M11.5,5.4C9.5,5.4,7.9,7,7.9,9c0,2,1.6,3.6,3.6,3.6c2,0,3.6-1.6,3.6-3.6
			C15.1,7,13.5,5.4,11.5,5.4z M11.5,11.4c-1.3,0-2.4-1.1-2.4-2.4c0-1.3,1.1-2.4,2.4-2.4c1.3,0,2.4,1.1,2.4,2.4
			C13.9,10.3,12.8,11.4,11.5,11.4z"/>
	</g>
</g>
<g>
	<path class="st0" d="M32,19.5l-0.1-4.5c-1.3-1.3-2.2-3-2.6-4.8c-0.5-2.4,0-4.9,1.4-6.9c1.4-2.1,3.6-3.5,6.1-4l0,0
		C42-1.7,47,1.6,47.9,6.7c0.5,2.4,0,4.9-1.4,6.9c-1.4,2.1-3.6,3.5-6.1,4c-1.6,0.3-3.2,0.2-4.7-0.3L32,19.5z M37,0.2
		c-2.3,0.4-4.2,1.7-5.5,3.6c-1.2,1.8-1.7,4-1.3,6.2c0.3,1.7,1.2,3.2,2.4,4.4l0.2,0.1l0.1,3.2l2.7-1.6l0.2,0.1
		c1.4,0.5,2.9,0.6,4.4,0.3c2.3-0.4,4.2-1.7,5.5-3.6c1.2-1.8,1.7-4,1.3-6.2C46.1,2.3,41.6-0.6,37,0.2L37,0.2z"/>
</g>
</svg>
