<?xml version="1.0" encoding="utf-8"?>
<svg xmlns="http://www.w3.org/2000/svg"
	xmlns:xlink="http://www.w3.org/1999/xlink"
	width="23px" height="18px" viewBox="0 0 23 18">
<path fillRule="evenodd" d="M 22.78 9.47C 22.64 9.82 19.28 18 11.47 18 3.66 18 0.3 9.82 0.16 9.47 0.16 9.47-0.03 9-0.03 9-0.03 9 0.17 8.53 0.17 8.53 0.3 8.18 3.66 0 11.47 0 19.28 0 22.64 8.18 22.78 8.53 22.78 8.53 22.97 9 22.97 9 22.97 9 22.78 9.47 22.78 9.47ZM 21.66 8.97C 21.53 8.65 18.47 1.2 11.47 1.2 4.47 1.2 1.41 8.65 1.28 8.97 1.28 8.97 1.27 9 1.27 9 1.27 9 1.28 9.03 1.28 9.03 1.41 9.35 4.47 16.8 11.47 16.8 18.47 16.8 21.53 9.35 21.66 9.03 21.66 9.03 21.67 9 21.67 9 21.67 9 21.66 8.97 21.66 8.97ZM 11.47 12.6C 9.48 12.6 7.86 10.99 7.86 9 7.86 7.01 9.48 5.4 11.47 5.4 13.46 5.4 15.09 7.01 15.09 9 15.09 10.99 13.46 12.6 11.47 12.6ZM 11.47 6.6C 10.14 6.6 9.06 7.68 9.06 9 9.06 10.32 10.14 11.4 11.47 11.4 12.8 11.4 13.88 10.32 13.88 9 13.88 7.68 12.8 6.6 11.47 6.6Z" fill="rgb(101,115,123)"/></svg>